# xmcd
#
# Track frame offsets: 
#        150
#        10717
#        21143
#        31087
#        41317
#        52340
#        64453
#        75358
#        82937
#        93150
#        102405
#        113010
#        123476
#        138209
#        149199
#        158870
#        167933
#        178721
#        188878
#        201545
#        210632
#        226826
#        243291
#        254127
#        263340
#        273745
#        283528
#        295170
#        307954
#        318754
#
# Disc length: 4410 seconds
#
# Revision: 0
# Processed by: cddbd v1.5.1PL0 Copyright (c) Steve Scherf et al.
# Submitted via: ExactAudioCopy v0.95a4
#
DISCID=aa11381e
DTITLE=Slim Willet - Boppin' Hillbilly Series
DYEAR=1900
DGENRE=Country
TTITLE0=Rig Movin Man
TTITLE1=Tool Pusher
TTITLE2=Oil Patch
TTITLE3=el Paso Gas
TTITLE4=Off Shore Drilling Rig
TTITLE5=Drill Bit Honky Tonk
TTITLE6=Morning Tower
TTITLE7=Blue Eagle (instr.)
TTITLE8=Do As I
TTITLE9=Come Sundown
TTITLE10=Four Hand Blues
TTITLE11=Don't Waste Your Heart
TTITLE12=Money Won't Buy Everything
TTITLE13=You Played Me For A Fool
TTITLE14=Ain't Goin' Home
TTITLE15=Pandemonium (instr.)
TTITLE16=Crazy Crazy
TTITLE17=Hadacol Corners
TTITLE18=Don't Let The Stars (Get In Your Eyes)
TTITLE19=Cruisin' (With The Cruisers) (instr.)
TTITLE20=I Can't Do A Thing
TTITLE21=Name Your Price
TTITLE22=Haywire Jones
TTITLE23=Roughneck
TTITLE24=I Might Confess
TTITLE25=Johnny Don't Drill
TTITLE26=Sneaky Pete (instr.)
TTITLE27=The Red Rose
TTITLE28=Live While You're Young (Dream While You're Old)
TTITLE29=Let Me Know
EXTD=
EXTT0=
EXTT1=
EXTT2=
EXTT3=
EXTT4=
EXTT5=
EXTT6=
EXTT7=
EXTT8=
EXTT9=
EXTT10=
EXTT11=
EXTT12=
EXTT13=
EXTT14=
EXTT15=
EXTT16=
EXTT17=
EXTT18=
EXTT19=
EXTT20=
EXTT21=
EXTT22=
EXTT23=
EXTT24=
EXTT25=
EXTT26=
EXTT27=
EXTT28=
EXTT29=
PLAYORDER=
